<?xml version="1.0" encoding="UTF-8"?><svg version="1.1" width="15px" height="14px" viewBox="0 0 15.0 14.0" xmlns="http://www.w3.org/2000/svg" xmlns:xlink="http://www.w3.org/1999/xlink"><defs><clipPath id="i0"><path d="M375,0 L375,812 L0,812 L0,0 L375,0 Z"></path></clipPath><clipPath id="i1"><path d="M7.4431531,3.14438503 L7.4431531,4.64171122 L5.92723596,4.64171122 L5.92723596,3.14438503 L7.4431531,3.14438503 Z M4.47953511,3.14438503 L4.47953511,4.64171122 L2.96361799,4.64171122 L2.96361799,3.14438503 L4.47953511,3.14438503 Z M1.51591712,3.14438503 L1.51591712,4.64171122 L0,4.64171122 L0,3.14438503 L1.51591712,3.14438503 Z M7.4431531,0 L7.4431531,1.49732621 L5.92723596,1.49732621 L5.92723596,0 L7.4431531,0 Z M4.47953511,0 L4.47953511,1.49732621 L2.96361799,1.49732621 L2.96361799,0 L4.47953511,0 Z M1.51591712,0 L1.51591712,1.49732621 L0,1.49732621 L0,0 L1.51591712,0 Z"></path></clipPath><clipPath id="i2"><path d="M5.30570995,0 L5.30570995,0.681283422 L6.76856999,0.681283422 L6.76856999,0 L8.28448711,0 L8.28448711,0.681283422 L9.69429005,0.681283422 L9.69429005,0 L11.2102072,0 L11.2102072,0.681283422 L11.9681657,0.681283422 C12.7722582,0.681283418 13.5434171,0.996790532 14.1119963,1.5583968 C14.6805755,2.12000307 15,2.88170462 15,3.67593583 L15,11.0053476 C15,11.7995788 14.6805755,12.5612804 14.1119963,13.1228866 C13.5434171,13.6844929 12.7722582,14 11.9681657,14 L3.03183426,14 C1.35739843,14 0,12.6592484 0,11.0053476 L0,3.67593583 C0,2.02203497 1.35739843,0.681283422 3.03183426,0.681283422 L3.78979282,0.681283422 L3.78979282,0 L5.30570995,0 Z M13.4765033,3.59358289 L1.51591714,3.59358289 L1.51591714,11.0053476 C1.51591714,11.832298 2.19461635,12.5026738 3.03183426,12.5026738 L11.9681657,12.5026738 C12.8053836,12.5026738 13.4840829,11.832298 13.4840829,11.0053476 L13.4765033,3.67593583 L13.4765033,3.59358289 Z"></path></clipPath></defs><g transform="translate(-20.0 -110.0)"><g clip-path="url(#i0)"><g transform="translate(20.0 110.0)"><g transform="translate(3.8049519997475727 5.689839572200167)"><g clip-path="url(#i1)"><polygon points="0,0 7.4431531,0 7.4431531,4.64171122 0,4.64171122 0,0" stroke="none" fill="#FFFFFF"></polygon></g></g><g clip-path="url(#i2)"><polygon points="0,0 15,0 15,14 0,14 0,0" stroke="none" fill="#FFFFFF"></polygon></g></g></g></g></svg>