<?xml version="1.0" encoding="UTF-8"?><svg version="1.1" width="21px" height="21px" viewBox="0 0 21.0 21.0" xmlns="http://www.w3.org/2000/svg" xmlns:xlink="http://www.w3.org/1999/xlink"><defs><clipPath id="i0"><path d="M375,0 L375,812 L0,812 L0,0 L375,0 Z"></path></clipPath><clipPath id="i1"><path d="M10.8166346,0 C14.1356753,0 16.8332223,2.78908808 16.8200474,6.25908028 L16.8200474,6.88760717 C16.8200474,7.11499423 16.8084329,7.33949187 16.7857872,7.56049637 L15.0579416,7.56 C13.234645,7.56 11.7527625,9.13323741 11.76,11.0905516 L11.76,11.4450839 C11.76,12.000518 11.8796507,12.5253879 12.0929279,12.9920387 C11.6828624,13.0848754 11.2552914,13.1335931 10.8166346,13.1335931 L9.60009379,13.1335931 C7.14056563,13.1335931 7.33891467,16.3809821 6.37361599,16.3809821 C6.26782983,16.3809821 6.1488204,16.3416991 6.00336444,16.250039 C5.56699654,15.9750585 4.99839594,14.7703819 4.20499976,13.7490257 C3.41160358,12.7145752 2.40663508,11.8765394 2.40663508,11.8765394 C2.40663508,11.8765394 0,10.8420889 0,6.87451286 L0,6.24598597 C0,2.78908807 2.68432375,0 6.00336444,0 L10.8166346,0 Z"></path></clipPath><clipPath id="i2"><path d="M5.40187125,0 C7.05941365,0 8.40657958,1.43021583 8.4,3.20959233 L8.4,3.53189448 C8.4,5.30455635 7.05941365,6.73477218 5.40187125,6.73477218 L4.79432582,6.73477218 C3.56602747,6.73477218 3.66508379,8.4 3.18300971,8.4 C3.13017967,8.4 3.07074588,8.37985612 2.99810458,8.33285372 C2.78018068,8.19184652 2.49621923,7.57410072 2.09999396,7.05035971 C1.70376868,6.51990408 1.20188333,6.09016787 1.20188333,6.09016787 C1.20188333,6.09016787 0,5.55971223 0,3.52517986 L0,3.2028777 C0,1.43021583 1.34056218,0 2.99810458,0 Z"></path></clipPath><clipPath id="i3"><path d="M7.49759391,0 C7.73561276,0 7.93396181,0.183320343 7.93396181,0.432112237 C7.92073854,2.17365549 6.13559713,3.587841 3.95375763,3.587841 C1.77191814,3.587841 0,2.17365549 0,0.432112237 C0,0.196414653 0.198349045,0 0.436367899,0 C0.674386754,0 0.872735799,0.183320343 0.872735799,0.432112237 C0.872735799,1.70226033 2.26117912,2.73671083 3.9669809,2.73671083 C5.67278269,2.73671083 7.06122601,1.70226033 7.06122601,0.432112237 C7.06122601,0.196414653 7.25957505,0 7.49759391,0 Z"></path></clipPath></defs><g transform="translate(-32.0 -420.0)"><g clip-path="url(#i0)"><g transform="translate(32.0 420.0)"><g transform="translate(0.0 2.519999999999982)"><g clip-path="url(#i1)"><polygon points="0,0 16.8200955,0 16.8200955,16.3809821 0,16.3809821 0,0" stroke="none" fill="#6368FA"></polygon></g><g transform="translate(20.99999999999991 8.399999999999977) scale(-1.0 1.0)"><g clip-path="url(#i2)"><polygon points="0,0 8.400024,0 8.400024,8.4 0,8.4 0,0" stroke="none" fill="#FFFFFF"></polygon></g></g><g transform="translate(4.456241882405494 6.651909587033857)"><g clip-path="url(#i3)"><polygon points="0,0 7.93396181,0 7.93396181,3.587841 0,3.587841 0,0" stroke="none" fill="#FFFFFF"></polygon></g></g></g></g></g></g></svg>