<?xml version="1.0" encoding="UTF-8"?><svg version="1.1" width="21px" height="21px" viewBox="0 0 21.0 21.0" xmlns="http://www.w3.org/2000/svg" xmlns:xlink="http://www.w3.org/1999/xlink"><defs><clipPath id="i0"><path d="M375,0 L375,812 L0,812 L0,0 L375,0 Z"></path></clipPath><clipPath id="i1"><path d="M5.90497759,0 C9.15811116,0.0073612382 11.7955368,2.70489325 11.8099552,6.03955086 C11.8099552,9.38253155 9.16620667,12.0925528 5.90497759,12.0925528 C2.64374852,12.0925528 0,9.38253155 0,6.03955086 C0.00723580285,2.70182437 2.64886618,0 5.90497759,0 Z"></path></clipPath><clipPath id="i2"><path d="M0.971063055,0 C1.5073018,0 1.9420299,0.445564341 1.94210381,0.995245364 L1.94210381,3.84688186 L4.29097268,5.60897798 C4.70057046,5.92637311 4.79831929,6.51578 4.51404962,6.95408954 C4.33516491,7.20942947 4.04650661,7.35988421 3.73984144,7.35762301 C3.53040939,7.36084903 3.32636405,7.28954438 3.16246585,7.15585626 L0.393687463,5.08438448 C0.14421591,4.89528132 -0.00207768405,4.59535962 0,4.27731754 L0,0.995245364 C9.62088169e-05,0.445564341 0.434824315,0 0.971063055,0 Z"></path></clipPath><clipPath id="i3"><path d="M0.540603587,0.154445507 C0.815549498,-0.0167646036 1.15245732,-0.047425678 1.45252807,0.0714537145 C2.67289009,0.27322044 3.17153265,1.14754295 4.14257341,1.14754295 C5.11361417,1.14754295 5.41542414,0.0714537145 6.75388571,0.0714537145 C7.75117082,0.152160405 8.05298079,0.542242758 8.14483599,1.09373849 C8.21724908,1.43502115 8.18986232,1.79061614 8.06610296,2.11602327 C7.76429299,2.90963909 7.02945134,4.63138187 6.0977771,4.63138187 L2.16112537,4.63138187 C1.25569547,4.63138187 0.494609478,2.93654132 0.140310818,2.1429255 C-0.00731724589,1.76248684 -0.03933532,1.34519514 0.0484556141,0.945776227 C0.08383505,0.618010433 0.265657677,0.325655617 0.540603587,0.154445507 Z"></path></clipPath><clipPath id="i4"><path d="M10.0561082,0 C10.8609439,0.0245777924 11.6184073,0.395711738 12.1425336,1.02228478 C9.36276573,2.23389233 7.55581847,5.0281337 7.54977327,8.12447376 L7.54977327,8.16482711 C7.53715354,9.79436412 8.02871467,11.3860707 8.95384572,12.7113041 L2.19592691,12.7113041 C0.886196577,12.5500326 -0.0743200325,11.3708774 0.00452412713,10.0210811 C0.00452412713,10.0210811 1.17239747,0 5.81764652,0 Z"></path></clipPath></defs><g transform="translate(-32.0 -355.0)"><g clip-path="url(#i0)"><g transform="translate(32.0 355.0)"><g transform="translate(9.190044814593278 8.067447159964745)"><g clip-path="url(#i1)"><polygon points="0,0 11.8099552,0 11.8099552,12.0925528 0,12.0925528 0,0" stroke="none" fill="#6368FA"></polygon></g></g><g transform="translate(14.150203704932341 10.09870278423032)"><g clip-path="url(#i2)"><polygon points="-2.18363253e-05,0 4.67651192,0 4.67651192,7.35772786 -2.18363253e-05,7.35772786 -2.18363253e-05,0" stroke="none" fill="#FFFFFF"></polygon></g></g><g transform="translate(3.8927202414597915 0.8400000000000394)"><g clip-path="url(#i3)"><polygon points="0,1.38777878e-17 8.18440748,1.38777878e-17 8.18440748,4.63138187 0,4.63138187 0,1.38777878e-17" stroke="none" fill="#FFFFFF"></polygon></g></g><g transform="translate(0.0 5.969073144116745)"><g clip-path="url(#i4)"><polygon points="1.73472348e-18,0 12.1425336,0 12.1425336,12.7113041 1.73472348e-18,12.7113041 1.73472348e-18,0" stroke="none" fill="#6368FA"></polygon></g></g></g></g></g></svg>