<?xml version="1.0" encoding="UTF-8"?><svg version="1.1" width="21px" height="21px" viewBox="0 0 21.0 21.0" xmlns="http://www.w3.org/2000/svg" xmlns:xlink="http://www.w3.org/1999/xlink"><defs><clipPath id="i0"><path d="M375,0 L375,812 L0,812 L0,0 L375,0 Z"></path></clipPath><clipPath id="i1"><path d="M9.65999999,0 C15.0066977,0 19.32,4.38260869 19.32,9.81521738 C19.32,14.7456522 15.7255814,18.8086957 11.007907,19.4934783 C10.5586047,19.5391304 9.34548838,21 8.89618604,21 C8.66030232,21 8.57061736,20.7203804 8.49920725,20.4019855 L8.43949041,20.1251969 C8.36808029,19.8043054 8.27839534,19.5134511 8.04251162,19.4934783 C3.4596279,18.6717391 0,14.6543478 0,9.81521738 C0,4.38260869 4.3133023,0 9.65999999,0 Z"></path></clipPath><clipPath id="i2"><path d="M3.8523824,9.05333335 C4.36863294,9.05333335 4.79101979,9.47333335 4.79101979,9.98666668 C4.79101979,10.5 4.36863297,10.92 3.8523824,10.92 C3.33613186,10.92 2.91374505,10.5 2.91374505,9.98666668 C2.91374505,9.47333335 3.33613186,9.05333335 3.8523824,9.05333335 Z M3.89931428,0 C5.91738462,0 7.56,1.68 7.56,3.78 C7.56,5.50666668 6.43363516,7 4.83795164,7.42 C4.79101976,7.42 4.79101976,7.56 4.79101979,7.79333335 C4.79101979,8.26000003 4.36863297,8.68 3.89931428,8.68 C3.42999559,8.68 3.00760878,8.26 3.00760878,7.79333335 C3.00760878,6.58000003 3.24226811,5.97333335 4.18090549,5.69333335 L4.27476922,5.69333335 C5.11954284,5.50666668 5.77658899,4.71333335 5.77658902,3.73333335 C5.77658902,2.61333335 4.93181539,1.72666668 3.89931428,1.72666668 C2.58522196,1.72666668 1.88124394,2.52 1.78738021,3.31333335 C1.74044834,3.78000003 1.27112967,4.15333335 0.80181098,4.10666668 C0.332492289,4.06 -0.042962647,3.59333335 0.00396923033,3.12666668 C0.191696712,1.49333335 1.59965276,0 3.89931428,0 Z"></path></clipPath></defs><g transform="translate(-32.0 -615.0)"><g clip-path="url(#i0)"><g transform="translate(32.0 615.0)"><g transform="translate(0.8399999999999999 0.0)"><g clip-path="url(#i1)"><polygon points="0,0 19.32,0 19.32,21 0,21 0,0" stroke="none" fill="#6368FA"></polygon></g></g><g transform="translate(6.720000000000027 4.200000000000045)"><g clip-path="url(#i2)"><polygon points="1.11022302e-16,0 7.56,0 7.56,10.92 1.11022302e-16,10.92 1.11022302e-16,0" stroke="none" fill="#FFFFFF"></polygon></g></g></g></g></g></svg>