<?xml version="1.0" encoding="UTF-8"?><svg version="1.1" width="26px" height="26px" viewBox="0 0 26.0 26.0" xmlns="http://www.w3.org/2000/svg" xmlns:xlink="http://www.w3.org/1999/xlink"><defs><clipPath id="i0"><path d="M375,0 L375,812 L0,812 L0,0 L375,0 Z"></path></clipPath><clipPath id="i1"><path d="M11.7098115,0.710985189 L17.9713901,5.99107769 C17.9918261,6.00707798 18.012262,6.02707832 18.0286108,6.04707868 C18.9404681,6.57667041 19.4996349,7.53739411 19.5000028,8.57512296 L19.5000028,17.6472819 C19.5000028,19.2673103 18.1553137,20.5833333 16.5000028,20.5833333 L3.00000279,20.5833333 C1.34469186,20.5833333 2.79139431e-06,19.2673103 2.79139431e-06,17.6472819 L2.79139431e-06,8.57112289 C-0.00144218504,7.53292465 0.558200334,6.57138364 1.47139482,6.0430786 L1.52861551,5.98707762 L7.79428128,0.710985189 C8.91974307,-0.236995063 10.5843497,-0.236995063 11.7098115,0.710985189 Z M14.3010914,10.2831529 C13.5817456,10.2831529 13.0013643,10.859163 13.0013643,11.5711755 C13.0013643,13.3472066 11.5463238,14.7872318 9.75204638,14.7872318 C7.95776896,14.7872318 6.50272851,13.3472066 6.50272853,11.5711755 C6.50272853,10.859163 5.92234723,10.2831529 5.20300137,10.2831529 C4.48365552,10.2831529 3.90327424,10.859163 3.90327424,11.5711755 C3.90327424,14.7712315 6.5231645,17.3632769 9.75204638,17.3632769 C12.9809283,17.3632769 15.6008185,14.7712315 15.6008185,11.5711755 C15.6008185,10.859163 15.0204372,10.2831529 14.3010914,10.2831529 Z"></path></clipPath></defs><g transform="translate(-51.0 -724.0)"><g clip-path="url(#i0)"><g transform="translate(51.0 724.0)"><g transform="translate(3.25 2.1666666666667425)"><g clip-path="url(#i1)"><polygon points="1.04354608e-13,0 19.5000028,0 19.5000028,20.5833333 1.04354608e-13,20.5833333 1.04354608e-13,0" stroke="none" fill="#999999"></polygon></g></g></g></g></g></svg>