<?xml version="1.0" encoding="UTF-8"?><svg version="1.1" width="21px" height="21px" viewBox="0 0 21.0 21.0" xmlns="http://www.w3.org/2000/svg" xmlns:xlink="http://www.w3.org/1999/xlink"><defs><clipPath id="i0"><path d="M375,0 L375,812 L0,812 L0,0 L375,0 Z"></path></clipPath><clipPath id="i1"><path d="M15.9860577,0 C17.3864942,0 18.5203959,1.15823224 18.5203959,2.58528496 L18.5203959,7.92969218 C18.5203959,9.35828102 17.3849883,10.5149771 15.9860577,10.5149771 L2.53433828,10.5149771 C1.1339018,10.5149771 0,9.3567449 0,7.92969218 L0,2.58528496 C0,1.15669612 1.13390178,0 2.53433828,0 L15.9860577,0 Z"></path></clipPath><clipPath id="i2"><path d="M15.9860577,0 C17.3864942,0 18.5203959,1.15823224 18.5203959,2.58528496 L18.5203959,7.92969218 C18.5203959,9.35828102 17.3849883,10.5149771 15.9860577,10.5149771 L2.53433828,10.5149771 C1.1339018,10.5149771 0,9.3567449 0,7.92969218 L0,2.58528496 C0,1.15669612 1.13390178,0 2.53433828,0 L15.9860577,0 Z"></path></clipPath><clipPath id="i3"><path d="M16.7856617,0 C18.1860982,0 19.32,1.15823224 19.32,2.58528498 L19.32,4.35181958 C19.32,4.81265469 18.9525737,5.18746725 18.50082,5.18746725 L0.819180041,5.18746725 C0.366759397,5.18746725 0,4.81333504 0,4.35181958 L0,2.58528498 C0,1.15669614 1.1339018,0 2.53433828,0 L16.7856617,0 Z"></path></clipPath><clipPath id="i4"><path d="M16.7856617,0 C18.1860982,0 19.32,1.15823224 19.32,2.58528498 L19.32,4.35181958 C19.32,4.81265469 18.9525737,5.18746725 18.50082,5.18746725 L0.819180041,5.18746725 C0.366759397,5.18746725 0,4.81333504 0,4.35181958 L0,2.58528498 C0,1.15669614 1.13390178,0 2.53433828,0 L16.7856617,0 Z"></path></clipPath><clipPath id="i5"><path d="M16.7856617,0 C18.1860982,0 19.32,1.15823224 19.32,2.58528498 L19.32,4.35181956 C19.32,4.81265467 18.9525737,5.18746725 18.50082,5.18746725 L0.819180041,5.18746725 C0.601919982,5.18746725 0.39355833,5.09942605 0.239932272,4.9427117 C0.0863062129,4.78599736 0,4.57344711 0,4.35181956 L0,2.58528498 C0,1.15669614 1.13390178,0 2.53433828,0 L16.7856617,0 Z"></path></clipPath><clipPath id="i6"><path d="M16.7856617,0 C18.1860982,0 19.32,1.15823224 19.32,2.58528498 L19.32,4.35181956 C19.32,4.81265467 18.9525737,5.18746725 18.50082,5.18746725 L0.819180041,5.18746725 C0.601919982,5.18746725 0.39355833,5.09942605 0.239932272,4.9427117 C0.0863062129,4.78599736 0,4.57344711 0,4.35181956 L0,2.5868211 C0,1.15823226 1.13390178,0 2.53433828,0 L16.7856617,0 Z"></path></clipPath><clipPath id="i7"><path d="M4.15462822,0 L4.15462822,15.8330143 L0,15.8330143 L0,0.00147042852 L4.15462822,0 Z"></path></clipPath><clipPath id="i8"><path d="M0,0 L4.15462822,0.00153612004 L4.15462822,0.867906141 L0,0.867906141 L0,0 Z"></path></clipPath><clipPath id="i9"><path d="M4.15462822,1.04609571 L4.15462822,1.56837549 L0,1.56837549 L0,1.04609571 L4.15462822,1.04609571 Z M4.15462822,0 L4.15462822,0.522279805 L0,0.522279805 L0,0 L4.15462822,0 Z"></path></clipPath><clipPath id="i10"><path d="M4.15462822,0 L4.15462822,0.522279805 L0,0.522279805 L0,0 L4.15462822,0 Z"></path></clipPath><clipPath id="i11"><path d="M4.15462822,0 L4.15462822,0.523815904 L0,0.523815904 L0,0 L4.15462822,0 Z"></path></clipPath><clipPath id="i12"><path d="M11.7338795,0 C12.2820073,0 12.8813339,0.116744892 13.3978389,0.331801277 C13.8977797,0.539177083 14.4112731,0.87712282 14.6567259,1.38404144 C14.9679056,2.03783606 14.9628957,2.80216368 14.6431733,3.45165498 C14.3088756,4.1198659 13.6372684,4.59452604 12.6976207,4.59452604 L2.14616003,4.59452604 C1.20048895,4.59452604 0.552975305,4.11064918 0.233736037,3.44090216 C-0.0542301881,2.80561383 -0.0770545149,2.07829244 0.170490518,1.4255166 C0.420460894,0.769594627 0.946001032,0.411679351 1.48509379,0.225809205 C2.01665732,0.041475157 2.61146635,0 3.11291297,0 C4.12634711,0 5.05394805,0.491557446 5.82042349,1.03534287 C6.20893167,1.31184393 6.57033464,1.61138675 6.8955973,1.88788783 L7.17568459,2.12752209 L7.44824265,2.362548 L7.75392932,2.09679976 L7.9903471,1.89096007 C8.31109224,1.61445901 8.66797766,1.31338007 9.04895662,1.03841511 C9.80187945,0.494629686 10.7189395,0 11.7338795,0 Z M3.11291297,1.04455957 C2.64760665,1.04455957 2.18832373,1.0844986 1.81788569,1.21353246 C1.45347103,1.33949405 1.22759419,1.52843646 1.12369082,1.8034014 C0.982141316,2.17360561 0.988164711,2.63597684 1.15380775,2.9846754 C1.30439232,3.29650715 1.59351468,3.54996646 2.14766588,3.54996646 L7.26302364,3.54996646 L7.13352091,3.44704662 C6.93776098,3.29036269 6.72091919,3.10295641 6.49805405,2.91094178 C6.41190056,2.83698709 6.32556513,2.76325324 6.23904858,2.68974092 C5.91649115,2.40897138 5.58186341,2.1429608 5.23615536,1.89249619 C4.52539619,1.38864981 3.8101195,1.04455957 3.11291297,1.04455957 Z M11.7338795,1.04302347 C11.0366729,1.04302347 10.3364547,1.38557757 9.63924813,1.88788783 C9.29861274,2.13919677 8.96901391,2.40571627 8.65141335,2.6866687 L8.43306573,2.87561108 C8.19965965,3.07837853 7.97077111,3.27807376 7.76145857,3.44397438 L7.63044998,3.54843036 L12.6976207,3.54843036 C13.2577953,3.54843036 13.5755287,3.28729045 13.7336425,2.97392258 C13.9050817,2.61772193 13.906747,2.20095492 13.73816,1.84334043 C13.6568444,1.67590369 13.4219325,1.46699176 13.0123424,1.29648277 C12.6052794,1.13186658 12.171753,1.04591862 11.7338795,1.04302347 Z"></path></clipPath><clipPath id="i13"><path d="M11.7353853,0 C12.2835131,0 12.8828397,0.116744892 13.3993448,0.331801277 C13.8992855,0.539177083 14.4127789,0.87712282 14.6582317,1.38404144 C14.9694115,2.03783606 14.9644015,2.80216368 14.6446791,3.45165498 C14.3103814,4.1198659 13.6387742,4.59452607 12.6991265,4.59452607 L2.14616003,4.59452607 C1.20048895,4.59452607 0.552975305,4.1106492 0.233736037,3.44090216 C-0.0542301881,2.80561383 -0.0770545149,2.07829244 0.170490518,1.4255166 C0.420460894,0.769594627 0.946001032,0.411679351 1.48509379,0.225809205 C2.01665732,0.041475157 2.61146635,0 3.11291297,0 C4.12634711,0 5.05394805,0.491557446 5.82042349,1.03534289 C6.20893167,1.31184395 6.57033464,1.60985067 6.8955973,1.88788783 L7.17568459,2.12752209 L7.44824265,2.362548 L7.75392932,2.09679976 L7.9903471,1.89096007 C8.31109224,1.61445901 8.66797766,1.31338007 9.04895662,1.03841511 C9.80338529,0.494629686 10.7204453,0 11.7353853,0 Z M3.11291297,1.04455959 C2.64760665,1.04455959 2.18832373,1.08449863 1.81788569,1.21353246 C1.45347103,1.33949405 1.22759419,1.52843646 1.12369082,1.8034014 C0.982141316,2.17360561 0.988164711,2.63597684 1.15380775,2.9846754 C1.30439232,3.29650715 1.59351468,3.54996648 2.14766588,3.54996648 L7.26302364,3.54996648 L7.13352091,3.44704662 C6.93776098,3.29036269 6.72091919,3.10295641 6.49805405,2.91094178 L6.23904858,2.68974094 C5.91649115,2.40897139 5.58186341,2.14296081 5.23615536,1.89249619 C4.52539619,1.38864981 3.8101195,1.04455959 3.11291297,1.04455959 Z M11.7338795,1.04455959 C11.0366729,1.04455959 10.3364547,1.38711369 9.63924813,1.88942395 C9.29864318,2.14023229 8.96904483,2.40623887 8.65141335,2.6866687 L8.43306573,2.8771472 C8.19965965,3.07991465 7.97077111,3.27960988 7.76145857,3.44551052 L7.63044998,3.54996648 L12.6976207,3.54996648 C13.2577953,3.54996648 13.5755287,3.28882657 13.7336425,2.9754587 C13.9050817,2.61925805 13.906747,2.20249104 13.73816,1.84487655 C13.6568444,1.67590369 13.4219325,1.46852788 13.0123424,1.29801889 C12.6052794,1.1334027 12.171753,1.04745474 11.7338795,1.04455959 Z"></path></clipPath><clipPath id="i14"><path d="M11.7353853,0 C12.2835131,0 12.8828397,0.116744892 13.3993448,0.331801277 C13.8992855,0.539177083 14.4127789,0.875586699 14.6582317,1.38404144 C14.9694115,2.03783606 14.9644015,2.80216368 14.6446791,3.45165498 C14.3103814,4.1198659 13.6387742,4.59452607 12.6991265,4.59452607 L2.14616003,4.59452607 C1.20048895,4.59452607 0.552975305,4.1106492 0.233736037,3.44090216 C-0.0542301881,2.80561383 -0.0770545149,2.07829244 0.170490518,1.4255166 C0.420460894,0.769594627 0.946001032,0.411679351 1.48509379,0.224273085 C2.01665732,0.039939037 2.61146635,0 3.11291297,0 C4.12634711,0 5.05394805,0.491557446 5.82042349,1.03534289 C6.20893167,1.31184395 6.57033464,1.60985067 6.8955973,1.88788783 C7.08060105,2.04514993 7.26481855,2.20337204 7.44824265,2.362548 L7.75392932,2.09679976 L7.9903471,1.89096007 C8.31109224,1.61445901 8.66797766,1.31338007 9.04895662,1.03841511 C9.80338529,0.494629686 10.7204453,0 11.7353853,0 Z M3.11291297,1.04302347 C2.64760665,1.04302347 2.18832373,1.08296251 1.81788569,1.21199634 C1.45347103,1.33949405 1.22759419,1.52843646 1.12369082,1.8034014 C0.982141316,2.17360561 0.988164711,2.63597684 1.15380775,2.98313928 C1.30439232,3.29650715 1.59351468,3.5515026 2.14766588,3.5515026 L7.26302364,3.5515026 L7.13352091,3.4439744 C6.93776098,3.28882657 6.72091919,3.10142031 6.49805405,2.90940566 L6.23904858,2.68820482 C5.91649115,2.40743527 5.58186341,2.14142469 5.23615536,1.89096007 C4.52539619,1.38711369 3.8101195,1.04302347 3.11291297,1.04302347 Z M11.7338795,1.04302347 C11.0366729,1.04302347 10.3364547,1.38557757 9.63924813,1.88788783 C9.29864554,2.13869935 8.96904732,2.40470582 8.65141335,2.68513258 L8.43306573,2.87561108 C8.19965965,3.07837853 7.97077111,3.27807376 7.76145857,3.4439744 L7.63044998,3.54843036 L12.6976207,3.54843036 C13.2577953,3.54843036 13.5755287,3.28729045 13.7336425,2.97392258 C13.9050817,2.61772193 13.906747,2.20095492 13.73816,1.84334043 C13.6568444,1.67436757 13.4219325,1.46699176 13.0123424,1.29648277 C12.6052794,1.13186658 12.171753,1.04591862 11.7338795,1.04302347 Z"></path></clipPath><clipPath id="i15"><path d="M2.62619486,0 L2.62619486,4.92171898 L0,4.92171898 L0,0 L2.62619486,0 Z"></path></clipPath><clipPath id="i16"><path d="M2.62920656,0 L2.62920656,0.614446818 L0,0.614446818 L0,0 L2.62920656,0 Z"></path></clipPath><clipPath id="i17"><path d="M2.62920656,0 L2.62920656,0.614446818 L0,0.614446818 L0,0 L2.62920656,0 Z"></path></clipPath><clipPath id="i18"><path d="M2.62920656,0 L2.62920656,0.614446797 L0,0.614446797 L0,0 L2.62920656,0 Z"></path></clipPath></defs><g transform="translate(-32.0 -550.0)"><g clip-path="url(#i0)"><g transform="translate(32.0 550.0)"><g transform="translate(0.8399999999999181 0.8399999999999181)"><g transform="translate(0.4005549493986109 8.805022857194672)"><g clip-path="url(#i1)"><polygon points="0,0 18.5203959,0 18.5203959,10.5149771 0,10.5149771 0,0" stroke="none" fill="#FBBB7F"></polygon></g></g><g transform="translate(0.4005549493986109 8.805022857194672)"><g clip-path="url(#i2)"><polygon points="0,0 18.5203959,0 18.5203959,10.5149771 0,10.5149771 0,0" stroke="none" fill="#6368FA"></polygon></g></g><g transform="translate(0.0 4.055348961572008)"><g clip-path="url(#i3)"><polygon points="0,0 19.32,0 19.32,5.18746725 0,5.18746725 0,0" stroke="none" fill="#FED8B3"></polygon></g></g><g transform="translate(0.0 4.055348961572008)"><g clip-path="url(#i3)"><polygon points="0,0 19.32,0 19.32,5.18746725 0,5.18746725 0,0" stroke="none" fill="#C2D2FD"></polygon></g></g><g transform="translate(0.0 5.745077706061238)"><g clip-path="url(#i4)"><polygon points="0,0 19.32,0 19.32,5.18746725 0,5.18746725 0,0" stroke="none" fill="#FED8B3"></polygon></g></g><g transform="translate(0.0 5.745077706061238)"><g clip-path="url(#i4)"><polygon points="0,0 19.32,0 19.32,5.18746725 0,5.18746725 0,0" stroke="none" fill="#FFFFFF"></polygon></g></g><g transform="translate(0.0 6.359524524148355)"><g clip-path="url(#i5)"><polygon points="0,0 19.32,0 19.32,5.18746725 0,5.18746725 0,0" stroke="none" fill="#FED8B3"></polygon></g></g><g transform="translate(0.0 6.359524524148355)"><g clip-path="url(#i5)"><polygon points="0,0 19.32,0 19.32,5.18746725 0,5.18746725 0,0" stroke="none" fill="#FFFFFF"></polygon></g></g><g transform="translate(0.0 6.122962500339781)"><g clip-path="url(#i6)"><polygon points="0,0 19.32,0 19.32,5.18746725 0,5.18746725 0,0" stroke="none" fill="#FED8B3"></polygon></g></g><g transform="translate(0.0 6.122962500339781)"><g clip-path="url(#i6)"><polygon points="0,0 19.32,0 19.32,5.18746725 0,5.18746725 0,0" stroke="none" fill="#6368FA"></polygon></g></g><g transform="translate(7.902678093528266 3.4869856606167096)"><g clip-path="url(#i7)"><polygon points="0,0 4.15462822,0 4.15462822,15.8330143 0,15.8330143 0,0" stroke="none" fill="#F2BA80"></polygon></g></g><g transform="translate(7.902678093528266 3.4869856606167096)"><g clip-path="url(#i7)"><polygon points="0,0 4.15462822,0 4.15462822,15.8330143 0,15.8330143 0,0" stroke="none" fill="#F2BA80"></polygon></g></g><g transform="translate(7.902678093528266 18.45209385868861)"><g clip-path="url(#i8)"><polygon points="0,0 4.15462822,0 4.15462822,0.867906141 0,0.867906141 0,0" stroke="none" fill="#F2C68F"></polygon></g></g><g transform="translate(7.902678093528266 5.745077706061011)"><g clip-path="url(#i9)"><polygon points="0,0 4.15462822,0 4.15462822,1.56837549 0,1.56837549 0,0" stroke="none" fill="#FFECC3"></polygon></g></g><g transform="translate(7.902678093528266 7.314989318608241)"><g clip-path="url(#i10)"><polygon points="0,0 4.15462822,0 4.15462822,0.522279805 0,0.522279805 0,0" stroke="none" fill="#FBD290"></polygon></g></g><g transform="translate(7.902678093528266 6.267357510885859)"><g clip-path="url(#i11)"><polygon points="0,0 4.15462822,0 4.15462822,0.523815904 0,0.523815904 0,0" stroke="none" fill="#FFF5E1"></polygon></g></g><g transform="translate(2.3939646710441593 0.0)"><g clip-path="url(#i12)"><polygon points="5.55111512e-17,0 14.8865891,0 14.8865891,4.59452604 5.55111512e-17,4.59452604 5.55111512e-17,0" stroke="none" fill="#FDCB7F"></polygon></g></g><g transform="translate(2.3939646710441593 0.8663700002718997)"><g clip-path="url(#i13)"><polygon points="2.77555756e-17,0 14.8880949,0 14.8880949,4.59452607 2.77555756e-17,4.59452607 2.77555756e-17,0" stroke="none" fill="#FFF7E8"></polygon></g></g><g transform="translate(2.3939646710441584 1.1367266019103681)"><g clip-path="url(#i14)"><polygon points="0,0 14.8880949,0 14.8880949,4.59452607 0,4.59452607 0,0" stroke="none" fill="#FFDEA2"></polygon></g></g><g transform="translate(8.633013251509055 0.8755866994979442)"><g clip-path="url(#i15)"><polygon points="0,0 2.62619486,0 2.62619486,4.92171898 0,4.92171898 0,0" stroke="none" fill="#FFD391"></polygon></g></g><g transform="translate(8.633013251509055 0.8786589395735973)"><g clip-path="url(#i16)"><polygon points="0,0 2.62920656,0 2.62920656,0.614446818 0,0.614446818 0,0" stroke="none" fill="#FFECC3"></polygon></g></g><g transform="translate(8.633013251509055 2.109088674784289)"><g clip-path="url(#i16)"><polygon points="0,0 2.62920656,0 2.62920656,0.614446818 0,0.614446818 0,0" stroke="none" fill="#F9DCA9"></polygon></g></g><g transform="translate(8.633013251509055 2.723535492871406)"><g clip-path="url(#i17)"><polygon points="0,0 2.62920656,0 2.62920656,0.614446818 0,0.614446818 0,0" stroke="none" fill="#F8D192"></polygon></g></g><g transform="translate(8.633013251509055 1.494641877698768)"><g clip-path="url(#i18)"><polygon points="0,0 2.62920656,0 2.62920656,0.614446797 0,0.614446797 0,0" stroke="none" fill="#FFF3D9"></polygon></g></g></g></g></g></g></svg>