<?xml version="1.0" encoding="UTF-8"?><svg version="1.1" width="34px" height="34px" viewBox="0 0 34.0 34.0" xmlns="http://www.w3.org/2000/svg" xmlns:xlink="http://www.w3.org/1999/xlink"><defs><clipPath id="i0"><path d="M375,0 L375,812 L0,812 L0,0 L375,0 Z"></path></clipPath><clipPath id="i1"><path d="M17,0 C26.3888407,0 34,7.61115925 34,17 C34,26.3888407 26.3888407,34 17,34 C7.61115925,34 0,26.3888407 0,17 C0,7.61115925 7.61115925,0 17,0 Z"></path></clipPath><clipPath id="i2"><path d="M9,0 C12.2416714,0 14.8695652,2.63832201 14.8695652,5.89285714 L14.8695652,8.64285714 L15.6521739,8.64285714 C16.2748561,8.64285714 16.8720349,8.89119826 17.3123377,9.3332483 C17.7526405,9.77529833 18,10.3748468 18,11 L18,12.9642857 C18,17.9545729 13.9705627,22 9,22 C4.02943725,22 0,17.9545729 0,12.9642857 L0,11 C0,9.69818594 1.05115755,8.64285714 2.34782609,8.64285714 L3.13043479,8.64285714 L3.13043479,5.89285714 C3.13043479,2.63832201 5.75832865,0 9,0 Z M9,11.7857143 C8.56777716,11.7857143 8.2173913,12.1374906 8.2173913,12.5714286 L8.2173913,15.7142857 C8.2173913,16.1482237 8.56777716,16.5 9,16.5 C9.43222284,16.5 9.7826087,16.1482237 9.7826087,15.7142857 L9.7826087,12.5714286 C9.7826087,12.1374906 9.43222284,11.7857143 9,11.7857143 Z M9,2.35714292 C7.05499721,2.35714292 5.47826086,3.94013608 5.47826086,5.89285714 L5.47826086,8.64285714 L12.5217391,8.64285714 L12.5217391,5.89285714 C12.5217391,3.94013608 10.9450028,2.35714292 9,2.35714292 Z"></path></clipPath></defs><g transform="translate(-35.0 -396.0)"><g clip-path="url(#i0)"><g transform="translate(35.0 396.0)"><g clip-path="url(#i1)"><polygon points="0,0 34,0 34,34 0,34 0,0" stroke="none" fill="rgba(255, 255, 255, 0.1)"></polygon></g><g transform="translate(8.0 6.0)"><g clip-path="url(#i2)"><polygon points="0,0 18,0 18,22 0,22 0,0" stroke="none" fill="#FFFFFF"></polygon></g></g></g></g></g></svg>