<?xml version="1.0" encoding="UTF-8"?><svg version="1.1" width="26px" height="26px" viewBox="0 0 26.0 26.0" xmlns="http://www.w3.org/2000/svg" xmlns:xlink="http://www.w3.org/1999/xlink"><defs><clipPath id="i0"><path d="M375,0 L375,812 L0,812 L0,0 L375,0 Z"></path></clipPath><clipPath id="i1"><path d="M5.68549643,0 L5.74679059,0.0402082337 L5.81723254,0.0840216833 L5.8919254,0.128599127 L5.9824314,0.18050008 L6.08829966,0.238667939 L6.20907929,0.302046101 L6.27491997,0.335358857 L6.34431941,0.369577961 L6.45496795,0.422317108 L6.57330667,0.476352617 L6.65637754,0.512876364 L6.74272537,0.549646083 C6.75738662,0.55578753 6.77218207,0.561933722 6.78711053,0.568081909 L6.87826811,0.604972944 C6.89372395,0.611118101 6.90931045,0.617259749 6.92502645,0.623395136 L7.02086698,0.660110318 L7.11975902,0.696543171 L7.22164621,0.732561618 L7.3264722,0.768033585 C7.34418496,0.773892701 7.36201783,0.779723545 7.37996962,0.785523364 L7.48909812,0.819927968 C7.67332618,0.876575105 7.8692121,0.929569452 8.07558172,0.976159439 L8.20065214,1.00332289 C8.66378761,1.09994289 9.17652752,1.16290226 9.72636917,1.16290226 C10.3913409,1.16290226 11.0090698,1.07173072 11.5538781,0.940443706 L11.6694973,0.911715368 L11.782828,0.881870645 L11.8938142,0.851021174 C11.9304126,0.840582963 11.9666109,0.829995901 12.0023997,0.819278594 L12.1085283,0.786754544 L12.2121439,0.753560662 L12.3131904,0.719808587 L12.4116116,0.685609957 L12.5073514,0.651076412 L12.6003536,0.616319589 L12.690562,0.581451128 L12.7779206,0.546582667 L12.8623731,0.511825844 L12.9834803,0.460144142 L13.0977331,0.409341594 L13.204942,0.359794981 L13.3049176,0.311881082 L13.3974703,0.265976678 L13.5089996,0.208547913 L13.6286961,0.144088241 L13.7578974,0.070646312 L13.8735807,0 L13.9315635,0.00375833428 L14.0152667,0.0134351209 L14.0782421,0.0230498459 L14.1515887,0.0363987772 L14.2130951,0.0492283388 L14.2799285,0.0647594117 L14.3518719,0.0832495762 L14.4287079,0.104956413 L14.4825429,0.121341877 L14.5383916,0.139347773 L14.5961896,0.159050421 L14.6864009,0.191952754 C14.696652,0.195839743 14.7069776,0.19980538 14.7173763,0.203851254 L14.7806363,0.229102079 C14.7913224,0.233475266 14.802079,0.237931871 14.8129048,0.242473484 L14.8786786,0.270755977 L14.9460478,0.301154983 L15.0149481,0.333746821 C15.0381629,0.344984719 15.0616222,0.35660081 15.0853152,0.368607812 L15.1570847,0.405814275 L15.1934753,0.425320909 L15.2672277,0.466188681 L15.3422218,0.509592726 L15.418393,0.555609364 L15.4956771,0.604314914 L15.5740097,0.655785698 C15.9419082,0.902553617 16.3419564,1.2421456 16.7447271,1.70946534 C17.1818975,2.22114143 17.6308834,2.88399453 18.044423,3.75616968 C18.7994282,5.35225018 19.0663384,7.01662201 19.1315507,8.36461666 L19.1390755,8.54244068 L19.1443608,8.71631242 C19.1478738,8.85950247 19.1492111,8.9983645 19.1487654,9.13237084 L19.1474,9.29081394 L19.1444737,9.44439296 C19.1438643,9.46957287 19.1431962,9.49454166 19.1424724,9.51929512 L19.1374879,9.66519809 L19.1313197,9.80573041 L19.1241188,9.94068947 L19.1160359,10.0698726 L19.1072221,10.1930773 L19.097828,10.3101008 L19.0829791,10.4736032 L19.0676733,10.6220582 L19.0524199,10.7547821 L19.0377279,10.871091 L19.0158719,11.0266038 L18.9896564,11.1871019 L19.0260446,11.2203791 L19.0825019,11.2769708 L19.1174262,11.3146644 L19.155497,11.3582123 L19.1749461,11.3815277 L19.2149293,11.4319873 C19.2688975,11.5025744 19.3246746,11.5861365 19.3724248,11.6796058 L19.4065787,11.7515174 C19.810847,12.6724351 19.2935006,14.3967064 9.75,14.3967064 C0.206499424,14.3967064 -0.310846956,12.6724351 0.0934213247,11.7515174 L0.127575212,11.6796058 C0.175325381,11.5861365 0.2311025,11.5025744 0.285070659,11.4319873 L0.325053911,11.3815277 C0.331610028,11.3735392 0.338099459,11.3657654 0.344502992,11.3582123 L0.382573779,11.3146644 L0.417498073,11.2769708 L0.473955351,11.2203791 L0.510343623,11.1871019 L0.488285314,11.0495204 L0.472101547,10.9352875 L0.453439379,10.7895279 L0.438528665,10.6605503 L0.428430453,10.5656063 L0.413416591,10.4102877 L0.403712187,10.2984528 L0.389982896,10.1188026 L0.381597447,9.99141646 L0.373998621,9.85818494 L0.367334442,9.71932238 L0.361752934,9.57504312 L0.357402119,9.42556151 L0.354430022,9.2710919 C0.353685556,9.21879451 0.353195547,9.16570151 0.352984665,9.11184863 L0.353214073,8.94804604 L0.35526627,8.77989849 C0.355768425,8.75152372 0.356352697,8.72297685 0.357022171,8.69426233 L0.362086093,8.51999923 L0.369342863,8.34192702 C0.430961446,7.02262141 0.681410248,5.41333873 1.38338173,3.89447126 L1.43194618,3.79105668 C1.84548578,2.90725254 2.30628706,2.23277043 2.75527292,1.70946534 C2.8573362,1.59147294 2.95917735,1.48162434 3.06034713,1.37935751 L3.14688918,1.29354387 C3.31960255,1.12557767 3.48996569,0.979420619 3.65571537,0.852241117 L3.73819527,0.790219719 C3.82026977,0.729753566 3.9010966,0.673913815 3.98039285,0.622346519 L4.05916844,0.572190265 C4.07220918,0.564063878 4.08520479,0.556052893 4.09815395,0.548155671 L4.17528109,0.502124392 L4.21340701,0.480108042 L4.28874424,0.438024762 C4.31364817,0.424423651 4.33834013,0.411244821 4.36280963,0.398475162 L4.4355403,0.361380586 L4.50687338,0.32666238 L4.576746,0.294241888 L4.6450953,0.264040453 L4.71185841,0.23597942 L4.77697246,0.209980135 L4.84037458,0.18596394 L4.90200191,0.163852181 L4.96179158,0.143566202 L5.01968072,0.125027348 L5.07560646,0.108156962 L5.15567618,0.0858077039 L5.23097462,0.0667700629 L5.30128961,0.0507785767 L5.38692416,0.0337362339 L5.42612051,0.0268722184 L5.49695702,0.0160652211 L5.5572995,0.00862856509 L5.5953671,0.00488432956 L5.65894373,0.000652750267 L5.68549643,0 Z M9.75,4.17505107 C7.82405811,4.17505107 6.26277372,5.71096311 6.26277372,7.60560663 C6.26277372,9.50025014 7.82405811,11.0361622 9.75,11.0361622 C11.6759419,11.0361622 13.2372263,9.50025014 13.2372263,7.60560663 C13.2372263,5.71096311 11.6759419,4.17505107 9.75,4.17505107 Z"></path></clipPath><clipPath id="i2"><path d="M2.9408211,0.220832661 L2.9675929,0.246070153 L4.47729168,1.73123491 L4.50228874,1.75686807 C4.8022535,2.07756538 4.80247261,2.57207874 4.50294608,2.89302998 L4.47729168,2.91936671 L2.9675929,4.40453146 L2.94153629,4.4291223 C2.61554125,4.72421234 2.11285882,4.7244279 1.78660566,4.42976895 L1.75983387,4.40453146 L0.250135085,2.91936671 L0.225138022,2.89373354 C-0.0748267347,2.57303624 -0.075045847,2.07852287 0.224480685,1.75757163 L0.250135085,1.73123491 L1.75983387,0.246070153 L1.78589048,0.221479316 C2.11188551,-0.0736107296 2.61456794,-0.0738262811 2.9408211,0.220832661 Z"></path></clipPath><clipPath id="i3"><path d="M6.23886075,0 C7.12162355,0 7.92707905,0.459984147 8.47700776,0.878248803 L8.55381148,0.937662916 C8.57882047,0.957336903 8.60323078,0.976862114 8.62702318,0.996184375 L8.6965274,1.05348814 L8.76220867,1.10924916 L8.82395153,1.16314239 L8.88164051,1.2148428 L8.93516015,1.26402534 L8.98439498,1.31036497 L9.02922954,1.35353665 L9.08449354,1.4081442 L9.14806837,1.47315553 L9.21634592,1.54665725 L9.27794878,1.50603964 L9.37591276,1.44565016 L9.47059164,1.39078441 L9.55978959,1.34182287 L9.63393822,1.3030064 L9.68660936,1.27643869 L9.77018918,1.2359623 L9.82879155,1.20880081 L9.92073384,1.16820301 L9.98455496,1.14147343 L10.0502641,1.11520379 L10.1177472,1.08955821 L10.1868904,1.0647008 L10.2220489,1.05261894 L10.2934683,1.02925149 L10.3662628,1.00708247 C10.3907441,0.999910773 10.4154356,0.992966165 10.4403183,0.986276 L10.5155209,0.966996185 C11.0583104,0.834686728 11.6806875,0.832636535 12.1938311,1.2326742 C12.6616271,1.59280113 12.5920042,2.1512805 12.3344155,2.69726546 L12.2944111,2.77904314 C12.2530844,2.8606744 12.2079215,2.94178733 12.160102,3.02167033 L12.1114405,3.10111699 L12.0612701,3.17958556 L12.0098526,3.25691791 C12.0011937,3.26970316 11.9924938,3.28243448 11.9837582,3.29510858 L11.9309618,3.37044008 L11.8775736,3.44424001 L11.8238559,3.51635025 L11.7700705,3.58661264 L11.7164797,3.65486907 L11.6633456,3.7209614 L11.6109302,3.78473148 L11.5093038,3.90467238 L11.43692,3.98735605 L11.368807,4.06321355 L11.2671784,4.17302391 L11.1839654,4.25991934 L11.0831819,4.36087571 L11.027168,4.40394608 L10.9650277,4.45390772 L10.8509956,4.5374367 L10.7289348,4.6238393 L10.6443389,4.68196743 L10.5514811,4.74419632 L10.48509,4.78771232 L10.4151832,4.83267866 L10.3038676,4.90252188 L10.1849927,4.9747909 L10.1016474,5.02406977 L10.0150987,5.07405455 L9.92540894,5.12459636 L9.83264067,5.17554631 L9.73685635,5.22675551 C9.72064443,5.23530371 9.70430944,5.24385651 9.68785268,5.25241081 L9.58766139,5.30372974 L9.48461021,5.3549357 L9.37876161,5.40587982 L9.32480779,5.43120716 L9.21488016,5.48147934 L9.10231128,5.53111746 C9.04537693,5.55575319 8.98747554,5.58009531 8.92864223,5.60406008 L8.80974348,5.65146166 C8.06900055,5.94036266 7.19006676,6.163371 6.23886075,6.163371 C5.39048781,6.163371 4.60582054,5.98750358 3.92768224,5.74557456 L3.80556777,5.70088395 L3.68585825,5.65488411 C3.54762227,5.60051094 3.41441316,5.54376418 3.28663965,5.48569187 L3.1784602,5.43561542 C3.14285046,5.41883136 3.10769397,5.40196354 3.07300028,5.38503639 L2.97031709,5.33410144 L2.87046783,5.28295723 L2.77350969,5.23175044 L2.67949988,5.18062771 L2.58849559,5.12973572 L2.50055402,5.07922113 L2.41573236,5.02923061 L2.33408782,4.97991082 L2.25567759,4.93140842 L2.18055888,4.88387009 L2.0741775,4.81469102 L1.97552377,4.74850607 L1.88479071,4.68581024 L1.77646802,4.60849884 L1.66204605,4.52360734 L1.57177089,4.45390772 L1.49717239,4.39418122 L1.45361671,4.36087571 L1.35548642,4.26315046 L1.26118613,4.16507025 L1.18523345,4.08354263 L1.07862035,3.96530232 L0.986106226,3.85891256 L0.913645244,3.77292066 L0.839361356,3.6821022 L0.789187435,3.61909174 L0.713491654,3.52120374 L0.637924509,3.41965883 L0.587979273,3.35014722 L0.538633303,3.27933523 L0.514252805,3.2434822 L0.466212305,3.17096332 L0.419313166,3.09746896 L0.373772226,3.02312908 L0.329806323,2.94807366 L0.287632295,2.87243265 C-0.035146562,2.27795719 -0.17304015,1.64154525 0.342967483,1.2443032 C0.843363835,0.854203047 1.44555661,0.846461997 1.97619208,0.969010231 L2.0533151,0.987844943 L2.09145578,0.997905002 L2.16681997,1.0192008 C2.17927374,1.02287342 2.19167236,1.02660526 2.20401331,1.03039266 L2.27734703,1.05375455 L2.34917618,1.0782744 C2.37285506,1.08662117 2.39626305,1.09513167 2.41938003,1.10377664 L2.48783785,1.13008573 L2.5544289,1.15702612 L2.61903246,1.18442223 L2.68152779,1.21209853 L2.74179416,1.23987946 L2.79971083,1.26758947 L2.85515708,1.29505299 L2.95815538,1.3485384 L3.04982319,1.39893123 L3.12919466,1.44482708 L3.20964585,1.49373342 L3.25781913,1.52437608 L3.30863724,1.55828625 L3.36025641,1.49997816 L3.42300403,1.43260536 L3.48985238,1.36371361 L3.54930338,1.30453335 L3.61645424,1.23979667 L3.69104916,1.17029734 L3.74478838,1.12171053 L3.80164659,1.07159496 L3.86154801,1.02018585 L3.92441684,0.967718361 L3.9901773,0.914427703 C4.00137413,0.905490395 4.01268829,0.896528588 4.0241182,0.887547182 L4.09407399,0.83346275 L4.16673193,0.779143126 L4.24201622,0.724823502 L4.31985108,0.67073907 C4.35939353,0.643794851 4.39986401,0.617027027 4.4412199,0.590567892 L4.5250996,0.538100407 C5.0069645,0.243561237 5.59890477,0 6.23886075,0 Z"></path></clipPath></defs><g transform="translate(-175.0 -724.0)"><g clip-path="url(#i0)"><g transform="translate(2.0 714.0)"><g transform="translate(173.0 10.0)"><g transform="translate(3.25 2.1666666666667425)"><g transform="translate(0.0 6.186626934505058)"><g clip-path="url(#i1)"><polygon points="0,0 19.5,0 19.5,14.3967064 0,14.3967064 0,0" stroke="none" fill="#999999"></polygon></g></g><g transform="translate(7.386286616809685 11.46693275266625)"><g clip-path="url(#i2)"><polygon points="-5.55111512e-17,-1.0269563e-15 4.72742677,-1.0269563e-15 4.72742677,4.65060161 -5.55111512e-17,4.65060161 -5.55111512e-17,-1.0269563e-15" stroke="none" fill="#999999"></polygon></g></g><g transform="translate(3.4756930011230915 0.0)"><g clip-path="url(#i3)"><polygon points="-5.55111512e-17,0 12.5367986,0 12.5367986,6.163371 -5.55111512e-17,6.163371 -5.55111512e-17,0" stroke="none" fill="#999999"></polygon></g></g></g></g></g></g></g></svg>