<?xml version="1.0" encoding="UTF-8"?><svg version="1.1" width="26px" height="26px" viewBox="0 0 26.0 26.0" xmlns="http://www.w3.org/2000/svg" xmlns:xlink="http://www.w3.org/1999/xlink"><defs><clipPath id="i0"><path d="M375,0 L375,812 L0,812 L0,0 L375,0 Z"></path></clipPath><clipPath id="i1"><path d="M11.5127851,0 L11.5127851,5.71844221 C11.5127851,8.87665063 8.93556034,11.4368844 5.75639253,11.4368844 C2.57722472,11.4368844 0,8.87665063 0,5.71844221 C0,2.56023378 2.57722472,0 5.75639253,0 L11.5127851,0 Z"></path></clipPath><clipPath id="i2"><path d="M14.3903892,0 C16.6140409,0 18.4166667,1.79074228 18.4166667,3.99973398 L18.4166667,4.57146056 C18.4166667,6.4659958 16.8706499,8.00182005 14.9635417,8.00182005 L3.453125,8.00182005 C1.54601672,8.00182005 0,6.4659958 0,4.57146056 L0,3.99973398 C0,2.93853099 0.424520782,1.92082646 1.18010659,1.17066329 C1.9356924,0.420500125 2.96040037,-0.000623544059 4.02864583,0 L14.3903892,0 Z"></path></clipPath></defs><g transform="translate(-299.0 -724.0)"><g clip-path="url(#i0)"><g transform="translate(2.0 714.0)"><g transform="translate(297.0 10.0)"><g transform="translate(4.333333333333485 2.1666666666667425)"><g transform="translate(3.453125 0.0)"><g clip-path="url(#i1)"><polygon points="0,0 11.5127851,0 11.5127851,11.4368844 0,11.4368844 0,0" stroke="none" fill="#999999"></polygon></g></g><g transform="translate(0.0 12.58151328082772)"><g clip-path="url(#i2)"><polygon points="0,-6.91459678e-07 18.4166667,-6.91459678e-07 18.4166667,8.00182005 0,8.00182005 0,-6.91459678e-07" stroke="none" fill="#999999"></polygon></g></g></g></g></g></g></g></svg>