<?xml version="1.0" encoding="UTF-8"?><svg version="1.1" width="21px" height="21px" viewBox="0 0 21.0 21.0" xmlns="http://www.w3.org/2000/svg" xmlns:xlink="http://www.w3.org/1999/xlink"><defs><clipPath id="i0"><path d="M375,0 L375,812 L0,812 L0,0 L375,0 Z"></path></clipPath><clipPath id="i1"><path d="M6.5,0 C10.0898509,0 13,2.6862915 13,6 C13,9.3137085 10.0898509,12 6.5,12 C2.91014913,12 0,9.3137085 0,6 C0,2.6862915 2.91014913,0 6.5,0 Z"></path></clipPath><clipPath id="i2"><path d="M4.95571447,0.029259926 C5.04172899,-0.0445198697 5.17188254,0.0315300736 5.14924714,0.142767304 C5.02022536,0.786354137 4.52790541,2.13255164 2.65935314,2.13368671 C0.789669095,2.13368671 0.187567454,1.0996345 0.00761602321,0.60701248 C-0.0286006169,0.509396135 0.0709951433,0.415185011 0.166063824,0.457182741 C0.606322354,0.647875136 1.61699297,1.03153007 2.65143075,1.03153007 C3.65644251,1.03153007 4.54601373,0.382267872 4.95571447,0.029259926 Z"></path></clipPath><clipPath id="i3"><path d="M10.5005621,0 C14.8906979,0 18.5768728,3.06696935 19.5479315,7.17593644 C20.3741236,7.3246311 21.0011242,8.0476731 21,8.91827469 L21,12.1362089 C21,12.9296254 20.48051,13.600454 19.7652313,13.8263337 C19.5377455,14.8887628 18.9899689,16.415437 17.6669297,17.7105562 C16.1729933,19.1725312 14.0712964,19.9704881 11.4105052,20.093076 C11.1943371,20.6242906 10.6737229,21 10.0659624,21 C9.26353747,21 8.61390149,20.3473326 8.61390149,19.5437003 C8.61390149,18.738933 9.26466924,18.0874007 10.0659624,18.0874007 C10.6601417,18.0874007 11.1694382,18.446084 11.3946604,18.9580023 C13.7521373,18.8444949 15.5946589,18.153235 16.8769543,16.8978434 C17.9181827,15.8796822 18.3935261,14.677639 18.6108259,13.7922815 C18.1943346,13.6333712 17.8536718,13.322361 17.655612,12.9262202 C17.0557739,14.6140749 15.8708107,16.030647 14.3395259,16.938706 C14.2206901,17.0102157 14.0950636,16.8524404 14.1901323,16.7502838 C15.4384746,15.4108967 15.6682239,13.5879682 15.5471245,11.9148695 C15.3445377,9.13280363 13.8415471,7.42678774 13.6468827,7.25652667 C13.2032288,6.89784336 13.2643444,7.415437 13.1341909,8.11123723 C12.5275622,10.676504 7.69377248,10.5891033 6.63217221,10.7412032 C5.57057195,10.8933031 5.04995775,11.7400681 5.04995775,12.262202 C4.96394323,14.6742338 6.21794439,16.2485812 7.50589866,17.2236095 C7.62020743,17.3098751 7.5194799,17.4892168 7.3870628,17.4347333 C5.46871265,16.6435868 3.94308669,15.1101022 3.17801017,13.1975028 C2.85545572,13.6276958 2.34502744,13.906924 1.76669297,13.906924 C0.791107232,13.906924 0,13.1135074 0,12.1350738 L0,8.91827469 C0,8.04653802 0.627000581,7.3246311 1.45319268,7.17593644 C2.42425134,3.06696935 6.11155801,0 10.5005621,0 Z M10.5005621,1.13507378 C6.67857478,1.13507378 3.46208444,3.78206583 2.57590853,7.34392736 C2.78119426,7.45056532 2.96379389,7.59630037 3.11349928,7.77298524 C4.19886671,4.85925085 7.0362141,2.77979569 10.3658815,2.77979569 C13.792881,2.77979569 16.6970028,4.98297389 17.7065417,8.03178207 C17.8756999,7.73838036 18.1250857,7.49968911 18.4252156,7.34392736 C17.5390397,3.78206583 14.3225494,1.13507378 10.5005621,1.13507378 Z"></path></clipPath></defs><g transform="translate(-32.0 -485.0)"><g clip-path="url(#i0)"><g transform="translate(32.0 485.0)"><g transform="translate(4.0 6.0)"><g clip-path="url(#i1)"><polygon points="0,0 13,0 13,12 0,12 0,0" stroke="none" fill="#FFFFFF"></polygon></g></g><g transform="translate(8.069826483120094 14.39639274139051)"><g clip-path="url(#i2)"><polygon points="3.88578059e-16,-8.8817842e-16 5.15184858,-8.8817842e-16 5.15184858,2.13368671 3.88578059e-16,2.13368671 3.88578059e-16,-8.8817842e-16" stroke="none" fill="#6368FA"></polygon></g></g><g clip-path="url(#i3)"><polygon points="0,0 21.0000015,0 21.0000015,21 0,21 0,0" stroke="none" fill="#6368FA"></polygon></g></g></g></g></svg>