<?xml version="1.0" encoding="UTF-8"?><svg version="1.1" width="34px" height="34px" viewBox="0 0 34.0 34.0" xmlns="http://www.w3.org/2000/svg" xmlns:xlink="http://www.w3.org/1999/xlink"><defs><clipPath id="i0"><path d="M375,0 L375,812 L0,812 L0,0 L375,0 Z"></path></clipPath><clipPath id="i1"><path d="M17,0 C26.3888407,0 34,7.61115925 34,17 C34,26.3888407 26.3888407,34 17,34 C7.61115925,34 0,26.3888407 0,17 C0,7.61115925 7.61115925,0 17,0 Z"></path></clipPath><clipPath id="i2"><path d="M4.53533749,10.3697449 C5.73987521,11.4803759 7.35813953,12.1639657 9.13874078,12.1639657 C10.8932501,12.1639657 12.4853091,11.5018899 13.684515,10.4231829 C16.3555303,11.240252 18,13.7499866 18,16.718802 L18,18.2726676 C18,21.9091108 0,21.9091108 0,18.2726676 L0,16.718802 C0,13.6697139 1.7335224,11.1172984 4.53533749,10.3697449 Z M9.13874078,0 C12.2495746,0 14.7686897,2.47769493 14.7686897,5.53198802 C14.7686897,8.58628111 12.2443562,11.0586554 9.13874078,11.0586554 C6.03834373,11.0586554 3.51412365,8.58639678 3.51412365,5.53198802 C3.51412365,2.47769493 6.03834373,0 9.13874078,0 Z"></path></clipPath></defs><g transform="translate(-35.0 -321.0)"><g clip-path="url(#i0)"><g transform="translate(35.0 321.0)"><g clip-path="url(#i1)"><polygon points="0,0 34,0 34,34 0,34 0,0" stroke="none" fill="rgba(255, 255, 255, 0.1)"></polygon></g><g transform="translate(8.0 7.0)"><g clip-path="url(#i2)"><polygon points="0,0 18,0 18,21 0,21 0,0" stroke="none" fill="#FFFFFF"></polygon></g></g></g></g></g></svg>