<?xml version="1.0" encoding="UTF-8"?><svg version="1.1" width="27px" height="27px" viewBox="0 0 27.0 27.0" xmlns="http://www.w3.org/2000/svg" xmlns:xlink="http://www.w3.org/1999/xlink"><defs><clipPath id="i0"><path d="M375,0 L375,812 L0,812 L0,0 L375,0 Z"></path></clipPath><clipPath id="i1"><path d="M13.5,0 C20.9558441,0 27,6.04415588 27,13.5 C27,20.9558441 20.9558441,27 13.5,27 C6.04415588,27 0,20.9558441 0,13.5 C0,6.04415588 6.04415588,0 13.5,0 Z"></path></clipPath><clipPath id="i2"><path d="M4.59213173,0 L4.64163856,0.032475881 L4.69853397,0.0678636673 L4.75886282,0.103868526 L4.83196383,0.145788526 L4.91747281,0.192770259 L5.01502558,0.243960312 L5.06820459,0.270866769 L5.12425798,0.298505276 L5.21362796,0.34110228 L5.30920924,0.384746344 L5.37630494,0.414246294 L5.44604741,0.443944913 C5.45788919,0.448905313 5.46983936,0.453869545 5.48189697,0.458835388 L5.55552424,0.488631993 C5.5680078,0.493595389 5.5805969,0.498555951 5.59329059,0.503511456 L5.67070025,0.533166026 L5.75057459,0.562592561 L5.83286809,0.591684384 L5.91753524,0.620334818 C5.9318417,0.625067182 5.94624517,0.62977671 5.9607447,0.634461179 L6.04888694,0.662249513 C6.19768653,0.708002969 6.35590208,0.750806096 6.52258523,0.78843647 L6.62360365,0.810376184 C6.99767461,0.888415411 7.41181069,0.939267207 7.85591356,0.939267207 C8.39300607,0.939267207 8.89194098,0.865628658 9.33197847,0.759589147 L9.42536317,0.73638549 L9.51689954,0.712280136 L9.60654223,0.687363256 L9.69424589,0.661725018 L9.77996516,0.635455593 L9.86365471,0.60864515 L9.94526919,0.581383858 L10.0247632,0.553761888 L10.1020915,0.525869409 L10.1772086,0.497796591 L10.2500693,0.469633603 L10.3206281,0.441470615 L10.3888398,0.413397797 L10.4866572,0.371654884 L10.5789383,0.330622057 L10.6655301,0.290603638 L10.7462796,0.251903951 L10.8210337,0.214827317 L10.9111151,0.168442545 L11.007793,0.116378964 L11.1121479,0.0570604828 L11.2055844,0 L11.2524167,0.00303557769 L11.3200231,0.0108514438 L11.3708879,0.0186171833 L11.4301294,0.0293990124 L11.4798076,0.0397613505 L11.5337884,0.0523056787 L11.5918965,0.0672400423 L11.6539564,0.0847724871 L11.6974385,0.0980069004 L11.7425471,0.112550124 L11.7892301,0.128463802 L11.862093,0.155038763 C11.8703727,0.158178254 11.8787126,0.161381268 11.8871116,0.16464909 L11.9382062,0.185043987 L11.9642692,0.195843968 L12.0173942,0.21868752 L12.0718078,0.243240563 L12.1274581,0.26956474 C12.1462085,0.278641504 12.1651564,0.288023731 12.1842931,0.297721694 L12.2422607,0.327773068 C12.2520135,0.332942924 12.2618113,0.338194282 12.2716531,0.343528427 L12.3312224,0.376537012 L12.3917945,0.411594125 C12.4121466,0.4236281 12.4326571,0.43601377 12.4533174,0.448761409 L12.5157392,0.488100508 L12.5790078,0.529673064 C12.8761567,0.728985613 13.1992725,1.00327144 13.5245873,1.38072201 C13.8776865,1.79399884 14.2403289,2.3293802 14.5743416,3.03382935 C15.1841535,4.3229713 15.3997349,5.66727162 15.4524063,6.75603653 L15.4584841,6.89966362 L15.4627529,7.04009849 C15.4655904,7.155752 15.4666705,7.26790979 15.4663105,7.37614568 L15.4652077,7.50411895 L15.4628441,7.62816354 C15.4623519,7.64850116 15.4618123,7.66866826 15.4612277,7.68866144 L15.4572017,7.80650615 L15.4522198,7.92001302 L15.4464036,8.02901842 L15.4398752,8.13335866 L15.4327563,8.23287011 L15.4251688,8.32738909 L15.4131754,8.45944871 L15.4008131,8.57935472 L15.388493,8.68655478 L15.3766264,8.78049654 L15.3589734,8.90610306 L15.3377994,9.03573613 L15.3671899,9.06261386 L15.3879213,9.0828551 L15.41279,9.10832257 L15.4409981,9.1387674 L15.4717476,9.17394072 C15.926891,9.71079003 16.9193021,11.628109 7.875,11.628109 C-1.16930208,11.628109 -0.176891006,9.71079003 0.278252416,9.17394072 L0.309001898,9.1387674 L0.337209982,9.10832257 L0.362078702,9.0828551 L0.382810091,9.06261386 L0.412200618,9.03573613 L0.394384292,8.9246126 L0.381312788,8.83234757 L0.366239499,8.71461868 L0.354196229,8.61044451 L0.346039981,8.53375897 L0.3339134,8.40830931 L0.326075228,8.31798112 L0.314986185,8.17287902 L0.308213323,8.06999022 L0.30207581,7.96238015 L0.296693203,7.85022192 L0.292185062,7.73368868 L0.288670942,7.61295353 L0.286270402,7.48818961 L0.285525086,7.42435096 L0.28528829,7.22726796 L0.286945833,7.09145647 C0.28735142,7.06853839 0.287823332,7.0454813 0.288364061,7.02228881 L0.292454152,6.88153784 L0.298315389,6.73771029 C0.348084245,5.67211729 0.550369816,4.37231205 1.11734678,3.14553448 L1.15657191,3.06200732 C1.49058467,2.34816551 1.86277032,1.8033915 2.22541274,1.38072201 C2.30784847,1.28542045 2.39010478,1.19669659 2.47181883,1.11409645 L2.54171819,1.04478543 C2.68121744,0.909120426 2.81881844,0.7910705 2.95269318,0.688348595 L3.01931157,0.638254389 C3.08560251,0.589416341 3.15088571,0.544315005 3.21493269,0.502664496 L3.31004742,0.442741119 L3.37234242,0.405562009 C3.38264707,0.399545732 3.39291209,0.393618695 3.40313643,0.387779572 L3.46398574,0.353789231 C3.48410045,0.342803718 3.50404395,0.332159279 3.52380778,0.321845323 L3.58255178,0.29188432 L3.64016696,0.263842692 L3.69660254,0.237656909 L3.75180774,0.213263443 L3.80573179,0.190598763 L3.85832391,0.169599339 L3.90953332,0.150201644 L3.95930924,0.132342146 L4.00760089,0.115957317 L4.0543575,0.100983627 L4.0995283,0.0873575464 L4.16419999,0.0693062224 L4.22501796,0.0539296662 L4.28181084,0.0410134658 L4.35097721,0.0272484966 L4.3826358,0.0217044841 L4.4398499,0.0129757555 L4.48858806,0.00696922565 L4.51933496,0.00394503542 L4.57068532,0.00052722137 L4.59213173,0 Z M7.875,3.37215663 C6.31943155,3.37215663 5.05839416,4.61270097 5.05839416,6.14298997 C5.05839416,7.67327896 6.31943155,8.9138233 7.875,8.9138233 C9.43056845,8.9138233 10.6916058,7.67327896 10.6916058,6.14298997 C10.6916058,4.61270097 9.43056845,3.37215663 7.875,3.37215663 Z"></path></clipPath><clipPath id="i3"><path d="M2.37527858,0.178364842 L2.39690196,0.19874897 L3.61627405,1.39830512 L3.63646399,1.41900883 C3.87874321,1.67803357 3.87892019,2.07744822 3.63699491,2.33667806 L3.61627405,2.35795003 L2.39690196,3.55750618 L2.37585623,3.57736801 C2.11255255,3.81570997 1.70653982,3.81588407 1.44302765,3.57789031 L1.42140428,3.55750618 L0.202032184,2.35795003 L0.181842248,2.33724632 C-0.0604369781,2.07822158 -0.0606139534,1.67880693 0.181311322,1.41957709 L0.202032184,1.39830512 L1.42140428,0.19874897 L1.44245,0.17888714 C1.70575368,-0.0594548201 2.11176642,-0.0596289194 2.37527858,0.178364842 Z"></path></clipPath><clipPath id="i4"><path d="M5.03907983,0 C5.75208056,0 6.40264077,0.371525658 6.84681396,0.709354802 L6.90884774,0.757343125 C6.9290473,0.773233652 6.94876332,0.789004015 6.96798026,0.804610457 L7.02411829,0.850894263 L7.07716854,0.895932011 L7.12703778,0.939461163 L7.17363272,0.981219187 L7.21686012,1.02094355 L7.25662671,1.05837171 L7.29283924,1.09324114 L7.33747556,1.13734724 L7.38882445,1.18985639 L7.44397171,1.24922316 L7.49372786,1.21641663 L7.57285261,1.16764051 L7.64932402,1.12332587 L7.72136851,1.08378001 L7.78125779,1.05242825 L7.82379987,1.03096971 L7.89130665,0.998277242 L7.93863933,0.976339118 L8.01290041,0.943548588 L8.06444824,0.921959306 L8.117521,0.900741523 L8.17202661,0.880027788 L8.22787301,0.859950649 C8.23728736,0.856664872 8.24675374,0.853411144 8.25627023,0.850192224 L8.31395517,0.83131851 L8.37275071,0.813412765 C8.39252409,0.807620239 8.41246723,0.802011133 8.43256478,0.796607539 L8.49330531,0.78103538 C8.93171226,0.674170049 9.43440146,0.672514124 9.84886358,0.995621469 C10.2266988,1.28649322 10.170465,1.73757271 9.96241251,2.17856056 L9.93010128,2.24461177 C9.89672198,2.31054471 9.86024429,2.376059 9.82162081,2.44057988 L9.78231735,2.50474834 L9.74179505,2.5681268 L9.70026559,2.63058754 C9.69327185,2.64091409 9.68624496,2.65119708 9.67918934,2.66143385 L9.63654607,2.72227852 L9.55003743,2.84012904 L9.50659543,2.89687944 L9.46331056,2.95200964 L9.42039451,3.0053919 L9.37805897,3.0568985 L9.29597616,3.15377385 L9.23751231,3.22055681 L9.18249795,3.28182633 L9.10041332,3.37051931 L9.03320279,3.44070408 L8.95180074,3.52224576 L8.9065588,3.55703338 L8.85636852,3.59738701 L8.76426567,3.66485272 L8.66567809,3.73463944 L8.59735063,3.78158908 L8.5223501,3.83185088 L8.46872658,3.86699841 L8.41226338,3.90331738 L8.32235457,3.95972921 L8.22634029,4.01810034 L8.15902293,4.0579025 L8.08911817,4.09827483 L8.01667645,4.13909706 L7.94174824,4.18024894 L7.86438397,4.22161022 C7.85128973,4.22851454 7.83809608,4.23542257 7.82480409,4.24233181 L7.74388036,4.28378171 L7.66064671,4.32514038 L7.5751536,4.36628755 L7.53157552,4.38674424 L7.44278783,4.4273487 L7.3518668,4.46744103 C7.30588137,4.48733912 7.25911486,4.50700006 7.21159565,4.52635622 L7.11556204,4.56464211 C6.51726968,4.79798523 5.80736162,4.97810734 5.03907983,4.97810734 C4.35385554,4.97810734 3.72008582,4.83606059 3.17235873,4.64065637 L3.07372782,4.60456012 L2.97703936,4.5674064 C2.86538722,4.52348961 2.75779524,4.47765568 2.65459356,4.43075113 L2.56721785,4.39030477 C2.53845614,4.37674841 2.51006052,4.3631244 2.48203869,4.34945247 L2.39910226,4.3083127 L2.31845478,4.26700392 L2.24014244,4.22564458 L2.16421144,4.18435315 L2.09070797,4.14324808 L2.01967824,4.10244784 L1.95116844,4.06207088 L1.88522478,4.02223566 L1.82189344,3.98306065 L1.76122063,3.9446643 L1.67529721,3.8887889 L1.59561535,3.83533183 L1.52233096,3.78469289 L1.43483955,3.72224907 L1.34242181,3.65368285 L1.26950726,3.59738701 L1.20925462,3.54914637 L1.17407504,3.52224576 L1.09481595,3.44331384 L1.01865034,3.3640952 L0.957303944,3.29824597 L0.871193359,3.20274418 L0.796470414,3.11681399 L0.737944236,3.04735899 L0.677945711,2.97400562 L0.637420621,2.92311256 L0.576281721,2.84404917 L0.515246719,2.76203213 L0.474906336,2.70588814 L0.435049975,2.64869384 C0.428457314,2.63907976 0.421892117,2.62942629 0.415358034,2.61973562 L0.376556092,2.56116268 L0.338676019,2.50180185 L0.301892952,2.44175811 L0.26638203,2.38113642 L0.232318392,2.32004176 C-0.0283876077,1.8398885 -0.139763198,1.32586347 0.277012198,1.00501412 C0.681178482,0.689933231 1.16756496,0.683680844 1.59615514,0.782662109 L1.65844682,0.797874762 C1.66875458,0.80052753 1.6790239,0.803236992 1.68925274,0.806000194 L1.75012382,0.823200649 C1.76018263,0.826166994 1.7701969,0.82918117 1.7801646,0.832240224 L1.83939568,0.851109446 L1.89741153,0.870913938 C1.91653678,0.877655558 1.93544323,0.884529425 1.95411464,0.891511905 L2.00940749,0.912761555 L2.06319258,0.934521093 L2.11537237,0.956648727 L2.16584937,0.979002662 L2.21452605,1.00144111 L2.2613049,1.02382226 L2.30608841,1.04600434 L2.38927935,1.08920409 L2.46331873,1.129906 L2.52742646,1.16697572 L2.59240626,1.206477 L2.63131545,1.23122684 L2.67236085,1.25861582 L2.71405325,1.21152082 L2.76473403,1.15710433 L2.81872692,1.101461 L2.86674504,1.05366155 L2.92098227,1.00137423 L2.98123201,0.945240157 L3.02463677,0.905996963 L3.07056071,0.86551901 L3.11894262,0.82399626 L3.1697213,0.781618676 L3.22283551,0.738576222 L3.25024932,0.716865032 L3.30675207,0.673181452 L3.36543733,0.62930791 L3.42624387,0.585434367 L3.48911049,0.541750788 C3.52104862,0.519988149 3.55373631,0.498367983 3.58713915,0.476997143 L3.65488814,0.434619559 C4.04408671,0.196722537 4.52219231,0 5.03907983,0 Z"></path></clipPath></defs><g transform="translate(-212.0 -270.0)"><g clip-path="url(#i0)"><g transform="translate(192.0 259.0)"><g transform="translate(20.0 11.0)"><g clip-path="url(#i1)"><polygon points="0,0 27,0 27,27 0,27 0,0" stroke="none" fill="#FFFFFF"></polygon></g><g transform="translate(3.0 3.0)"><g transform="translate(2.625000000000064 1.749999999999968)"><g transform="translate(0.0 4.996890985561792)"><g clip-path="url(#i2)"><polygon points="1.77635684e-15,0 15.75,0 15.75,11.628109 1.77635684e-15,11.628109 1.77635684e-15,0" stroke="none" fill="#6368FA"></polygon></g></g><g transform="translate(5.965846882807777 9.261753377153461)"><g clip-path="url(#i3)"><polygon points="0,-8.32667268e-16 3.81830623,-8.32667268e-16 3.81830623,3.75625515 0,3.75625515 0,-8.32667268e-16" stroke="none" fill="#6368FA"></polygon></g></g><g transform="translate(2.807290500907051 0.0)"><g clip-path="url(#i4)"><polygon points="-2.77555756e-17,0 10.1258758,0 10.1258758,4.97810734 -2.77555756e-17,4.97810734 -2.77555756e-17,0" stroke="none" fill="#6368FA"></polygon></g></g></g></g></g></g></g></g></svg>