<?xml version="1.0" encoding="UTF-8"?><svg version="1.1" width="27px" height="27px" viewBox="0 0 27.0 27.0" xmlns="http://www.w3.org/2000/svg" xmlns:xlink="http://www.w3.org/1999/xlink"><defs><clipPath id="i0"><path d="M375,0 L375,812 L0,812 L0,0 L375,0 Z"></path></clipPath><clipPath id="i1"><path d="M13.5,0 C20.9558441,0 27,6.04415588 27,13.5 C27,20.9558441 20.9558441,27 13.5,27 C6.04415588,27 0,20.9558441 0,13.5 C0,6.04415588 6.04415588,0 13.5,0 Z"></path></clipPath><clipPath id="i2"><path d="M16.3781095,6.01 C16.5373134,6.00333333 16.6832504,6.02 16.8159204,6.06 C16.9485904,6.1 17.0480929,6.16666667 17.1144279,6.26 C17.2736318,6.54 17.4560531,6.85 17.6616915,7.19 C17.86733,7.53 18.0829187,7.87333333 18.3084577,8.22 C18.5339967,8.56666667 18.7562189,8.91 18.9751244,9.25 C19.1940299,9.59 19.3963516,9.90666667 19.5820896,10.2 L19.880597,10.7 C19.960199,10.8333333 20,10.94 20,11.02 C20,11.1 19.9502488,11.1566667 19.8507463,11.19 C19.7512438,11.2233333 19.5887231,11.24 19.3631841,11.24 L18.2885572,11.24 C17.9966833,11.24 17.7777778,11.3133333 17.6318408,11.46 C17.4859038,11.6066667 17.4129353,11.8 17.4129353,12.04 L17.4129353,13.98 C17.4129353,14.2066667 17.3134328,14.4333333 17.1144279,14.66 C16.9154229,14.8866667 16.6766169,15 16.39801,15 L15.6218905,15 C15.4228856,15 15.2470978,14.9233333 15.0945274,14.77 C14.9419569,14.6166667 14.8656716,14.3466667 14.8656716,13.96 C14.8656716,13.7866667 14.8689884,13.6766667 14.8756219,13.63 C14.8822554,13.5833333 14.8855721,13.5233333 14.8855721,13.45 C14.8855721,13.3766667 14.8888889,13.2533333 14.8955224,13.08 C14.9021559,12.9066667 14.9054726,12.6066667 14.9054726,12.18 C14.9054726,11.8466667 14.8490879,11.6066667 14.7363184,11.46 C14.6235489,11.3133333 14.4212272,11.24 14.1293532,11.24 L13.0547264,11.24 C12.7495854,11.24 12.5572139,11.1766667 12.4776119,11.05 C12.39801,10.9233333 12.4643449,10.7266667 12.6766169,10.46 C12.8756219,10.1933333 13.0978441,9.88333333 13.3432836,9.53 C13.5069099,9.29444444 13.6734844,9.05296296 13.8430072,8.80555556 L14.0995025,8.43 C14.358209,8.05 14.6102819,7.68 14.8557214,7.32 C15.1011609,6.96 15.3366501,6.64 15.5621891,6.36 C15.655058,6.25333333 15.774461,6.17 15.920398,6.11 C16.066335,6.05 16.2189055,6.01666667 16.3781095,6.01 Z M11.1641791,10.02 C11.1243781,10.0466667 11.0878939,10.0833333 11.0547264,10.13 C11.0215589,10.1766667 10.9917081,10.2133333 10.9651741,10.24 C10.8325041,10.4266667 10.7529022,10.6466667 10.7263682,10.9 C10.6998342,11.1533333 10.7263682,11.3966667 10.8059701,11.63 C10.8855721,11.8633333 11.0149254,12.06 11.1940299,12.22 C11.3731343,12.38 11.5953566,12.46 11.8606965,12.46 L12.7960199,12.46 L13.6517413,12.44 L13.6517413,12.6 C13.6517413,12.68 13.655058,12.81 13.6616915,12.99 C13.668325,13.17 13.6716418,13.4333333 13.6716418,13.78 L1.11442786,13.78 C0.809286899,13.78 0.547263682,13.67 0.328358209,13.45 C0.109452736,13.23 0,12.96 0,12.64 L0,11.14 C0,10.8333333 0.109452736,10.57 0.328358209,10.35 C0.547263682,10.13 0.809286899,10.02 1.11442786,10.02 L11.1641791,10.02 Z M15.721393,4.94 C15.5223881,4.99333333 15.3300166,5.06333333 15.1442786,5.15 C14.9585406,5.23666667 14.7927032,5.37333333 14.6467662,5.56 C14.2222222,6.04 13.7976783,6.55666667 13.3731343,7.11 C12.9485904,7.66333333 12.5439469,8.2 12.159204,8.72 L1.11442786,8.72 C0.809286899,8.72 0.547263682,8.60666667 0.328358209,8.38 C0.109452736,8.15333333 0,7.88666667 0,7.58 L0,6.06 C0,5.75333333 0.109452736,5.49 0.328358209,5.27 C0.547263682,5.05 0.809286899,4.94 1.11442786,4.94 L15.721393,4.94 Z M18.7462687,0 C19.0514096,0 19.3167496,0.11 19.5422886,0.33 C19.7678275,0.55 19.880597,0.813333333 19.880597,1.12 L19.880597,2.52 C19.880597,2.82666667 19.7678275,3.09333333 19.5422886,3.32 C19.3167496,3.54666667 19.0514096,3.66 18.7462687,3.66 L3.60199005,3.66 C3.29684909,3.66 3.03482587,3.54666667 2.8159204,3.32 C2.59701493,3.09333333 2.48756219,2.82666667 2.48756219,2.52 L2.48756219,1.12 C2.48756219,0.813333333 2.59701493,0.55 2.8159204,0.33 C3.03482587,0.11 3.29684909,0 3.60199005,0 L18.7462687,0 Z"></path></clipPath></defs><g transform="translate(-30.0 -270.0)"><g clip-path="url(#i0)"><g transform="translate(10.0 259.0)"><g transform="translate(20.0 11.0)"><g clip-path="url(#i1)"><polygon points="0,0 27,0 27,27 0,27 0,0" stroke="none" fill="#FFFFFF" opacity="10%"></polygon></g><g transform="translate(4.0 6.0)"><g clip-path="url(#i2)"><polygon points="0,0 20,0 20,15 0,15 0,0" stroke="none" fill="#FFFFFF" opacity="40%"></polygon></g></g></g></g></g></g></svg>